<svg xmlns="http://www.w3.org/2000/svg" xmlns:xlink="http://www.w3.org/1999/xlink" contentStyleType="text/css" data-diagram-type="ACTIVITY" height="892px" preserveAspectRatio="none" style="width:648px;height:892px;background:#FFFFFF;" version="1.1" viewBox="0 0 648 892" width="648px" zoomAndPan="magnify"><?plantuml 1.2026.7beta1?><defs/><g><rect fill="none" height="20.9531" style="stroke:none;stroke-width:1;" width="601.894" x="20" y="17.7451"/><ellipse cx="81.4336" cy="53.6982" fill="#222222" rx="10" ry="10" style="stroke:#222222;stroke-width:1;"/><rect fill="#F1F1F1" height="33.9688" rx="12.5" ry="12.5" style="stroke:#181818;stroke-width:0.5;" width="110.8672" x="26" y="83.6982"/><text fill="#000000" font-family="sans-serif" font-size="12" lengthAdjust="spacing" textLength="90.8672" x="36" y="104.8369">Masuk Website</text><rect fill="#F1F1F1" height="33.9688" rx="12.5" ry="12.5" style="stroke:#181818;stroke-width:0.5;" width="82.1914" x="40.3379" y="137.667"/><text fill="#000000" font-family="sans-serif" font-size="12" lengthAdjust="spacing" textLength="62.1914" x="50.3379" y="158.8057">Cari Event</text><rect fill="#F1F1F1" height="33.9688" rx="12.5" ry="12.5" style="stroke:#181818;stroke-width:0.5;" width="83.0352" x="39.916" y="245.6045"/><text fill="#000000" font-family="sans-serif" font-size="12" lengthAdjust="spacing" textLength="63.0352" x="49.916" y="266.7432">Pilih Event</text><rect fill="#F1F1F1" height="33.9688" rx="12.5" ry="12.5" style="stroke:#181818;stroke-width:0.5;" width="83.1113" x="39.8779" y="353.542"/><text fill="#000000" font-family="sans-serif" font-size="12" lengthAdjust="spacing" textLength="63.1113" x="49.8779" y="374.6807">Klik Daftar</text><line style="stroke:#000000;stroke-width:1.5;" x1="20" x2="20" y1="17.7451" y2="871.292"/><rect fill="#F1F1F1" height="33.9688" rx="12.5" ry="12.5" style="stroke:#181818;stroke-width:0.5;" width="162.3828" x="214.7603" y="191.6357"/><text fill="#000000" font-family="sans-serif" font-size="12" lengthAdjust="spacing" textLength="142.3828" x="224.7603" y="212.7744">Tampilkan Daftar Event</text><rect fill="#F1F1F1" height="33.9688" rx="12.5" ry="12.5" style="stroke:#181818;stroke-width:0.5;" width="159.9219" x="215.9907" y="299.5732"/><text fill="#000000" font-family="sans-serif" font-size="12" lengthAdjust="spacing" textLength="139.9219" x="225.9907" y="320.7119">Tampilkan Detail Event</text><rect fill="#F1F1F1" height="33.9688" rx="12.5" ry="12.5" style="stroke:#181818;stroke-width:0.5;" width="99.2539" x="246.3247" y="407.5107"/><text fill="#000000" font-family="sans-serif" font-size="12" lengthAdjust="spacing" textLength="79.2539" x="256.3247" y="428.6494">Validasi Data</text><polygon fill="#F1F1F1" points="264.4717,461.4795,327.4316,461.4795,339.4316,473.4795,327.4316,485.4795,264.4717,485.4795,252.4717,473.4795,264.4717,461.4795" style="stroke:#181818;stroke-width:0.5;stroke-linejoin:miter;stroke-miterlimit:10;"/><text fill="#000000" font-family="sans-serif" font-size="11" lengthAdjust="spacing" textLength="62.96" x="264.4717" y="477.2876">Data Valid?</text><text fill="#000000" font-family="sans-serif" font-size="11" lengthAdjust="spacing" textLength="13.46" x="239.0117" y="470.8853">Ya</text><text fill="#000000" font-family="sans-serif" font-size="11" lengthAdjust="spacing" textLength="29.8687" x="339.4316" y="470.8853">Tidak</text><rect fill="#F1F1F1" height="33.9688" rx="12.5" ry="12.5" style="stroke:#181818;stroke-width:0.5;" width="146.7441" x="146.8672" y="495.4795"/><text fill="#000000" font-family="sans-serif" font-size="12" lengthAdjust="spacing" textLength="126.7441" x="156.8672" y="516.6182">Simpan Data Peserta</text><rect fill="#F1F1F1" height="33.9688" rx="12.5" ry="12.5" style="stroke:#181818;stroke-width:0.5;" width="134.8086" x="152.835" y="549.4482"/><text fill="#000000" font-family="sans-serif" font-size="12" lengthAdjust="spacing" textLength="114.8086" x="162.835" y="570.5869">Tampilkan Berhasil</text><rect fill="#F1F1F1" height="33.9688" rx="12.5" ry="12.5" style="stroke:#181818;stroke-width:0.5;" width="116.1055" x="313.6113" y="495.4795"/><text fill="#000000" font-family="sans-serif" font-size="12" lengthAdjust="spacing" textLength="96.1055" x="323.6113" y="516.6182">Tampilkan Error</text><polygon fill="#F1F1F1" points="295.9517,589.417,307.9517,601.417,295.9517,613.417,283.9517,601.417,295.9517,589.417" style="stroke:#181818;stroke-width:0.5;stroke-linejoin:miter;stroke-miterlimit:10;"/><rect fill="#F1F1F1" height="33.9688" rx="12.5" ry="12.5" style="stroke:#181818;stroke-width:0.5;" width="103.1855" x="244.3589" y="687.3857"/><text fill="#000000" font-family="sans-serif" font-size="12" lengthAdjust="spacing" textLength="83.1855" x="254.3589" y="708.5244">Validasi Login</text><line style="stroke:#000000;stroke-width:1.5;" x1="140.8672" x2="140.8672" y1="17.7451" y2="871.292"/><rect fill="#F1F1F1" height="33.9688" rx="12.5" ry="12.5" style="stroke:#181818;stroke-width:0.5;" width="94.8535" x="480.4482" y="633.417"/><text fill="#000000" font-family="sans-serif" font-size="12" lengthAdjust="spacing" textLength="74.8535" x="490.4482" y="654.5557">Login Admin</text><rect fill="#F1F1F1" height="33.9688" rx="12.5" ry="12.5" style="stroke:#181818;stroke-width:0.5;" width="94.8066" x="480.4717" y="741.3545"/><text fill="#000000" font-family="sans-serif" font-size="12" lengthAdjust="spacing" textLength="74.8066" x="490.4717" y="762.4932">Kelola Event</text><rect fill="#F1F1F1" height="33.9688" rx="12.5" ry="12.5" style="stroke:#181818;stroke-width:0.5;" width="176.3164" x="439.7168" y="795.3232"/><text fill="#000000" font-family="sans-serif" font-size="12" lengthAdjust="spacing" textLength="156.3164" x="449.7168" y="816.4619">Tambah/Edit/Hapus Event</text><ellipse cx="527.875" cy="860.292" fill="none" rx="11" ry="11" style="stroke:#222222;stroke-width:1;"/><ellipse cx="527.875" cy="860.292" fill="#222222" rx="6" ry="6" style="stroke:#222222;stroke-width:1;"/><line style="stroke:#000000;stroke-width:1.5;" x1="433.7168" x2="433.7168" y1="17.7451" y2="871.292"/><line style="stroke:#000000;stroke-width:1.5;" x1="620.0332" x2="620.0332" y1="17.7451" y2="871.292"/><line style="stroke:#181818;stroke-width:1;" x1="81.4336" x2="81.4336" y1="63.6982" y2="83.6982"/><polygon fill="#181818" points="77.4336,73.6982,81.4336,83.6982,85.4336,73.6982,81.4336,77.6982" style="stroke:#181818;stroke-width:1;stroke-linejoin:miter;stroke-miterlimit:10;"/><line style="stroke:#181818;stroke-width:1;" x1="81.4336" x2="81.4336" y1="117.667" y2="137.667"/><polygon fill="#181818" points="77.4336,127.667,81.4336,137.667,85.4336,127.667,81.4336,131.667" style="stroke:#181818;stroke-width:1;stroke-linejoin:miter;stroke-miterlimit:10;"/><line style="stroke:#181818;stroke-width:1;" x1="220.2393" x2="220.2393" y1="529.4482" y2="549.4482"/><polygon fill="#181818" points="216.2393,539.4482,220.2393,549.4482,224.2393,539.4482,220.2393,543.4482" style="stroke:#181818;stroke-width:1;stroke-linejoin:miter;stroke-miterlimit:10;"/><line style="stroke:#181818;stroke-width:1;" x1="252.4717" x2="220.2393" y1="473.4795" y2="473.4795"/><line style="stroke:#181818;stroke-width:1;" x1="220.2393" x2="220.2393" y1="473.4795" y2="495.4795"/><polygon fill="#181818" points="216.2393,485.4795,220.2393,495.4795,224.2393,485.4795,220.2393,489.4795" style="stroke:#181818;stroke-width:1;stroke-linejoin:miter;stroke-miterlimit:10;"/><line style="stroke:#181818;stroke-width:1;" x1="339.4316" x2="371.6641" y1="473.4795" y2="473.4795"/><line style="stroke:#181818;stroke-width:1;" x1="371.6641" x2="371.6641" y1="473.4795" y2="495.4795"/><polygon fill="#181818" points="367.6641,485.4795,371.6641,495.4795,375.6641,485.4795,371.6641,489.4795" style="stroke:#181818;stroke-width:1;stroke-linejoin:miter;stroke-miterlimit:10;"/><line style="stroke:#181818;stroke-width:1;" x1="220.2393" x2="220.2393" y1="583.417" y2="601.417"/><line style="stroke:#181818;stroke-width:1;" x1="220.2393" x2="283.9517" y1="601.417" y2="601.417"/><polygon fill="#181818" points="273.9517,597.417,283.9517,601.417,273.9517,605.417,277.9517,601.417" style="stroke:#181818;stroke-width:1;stroke-linejoin:miter;stroke-miterlimit:10;"/><line style="stroke:#181818;stroke-width:1;" x1="371.6641" x2="371.6641" y1="529.4482" y2="601.417"/><line style="stroke:#181818;stroke-width:1;" x1="371.6641" x2="307.9517" y1="601.417" y2="601.417"/><polygon fill="#181818" points="317.9517,597.417,307.9517,601.417,317.9517,605.417,313.9517,601.417" style="stroke:#181818;stroke-width:1;stroke-linejoin:miter;stroke-miterlimit:10;"/><line style="stroke:#181818;stroke-width:1;" x1="295.9517" x2="295.9517" y1="441.4795" y2="461.4795"/><polygon fill="#181818" points="291.9517,451.4795,295.9517,461.4795,299.9517,451.4795,295.9517,455.4795" style="stroke:#181818;stroke-width:1;stroke-linejoin:miter;stroke-miterlimit:10;"/><line style="stroke:#181818;stroke-width:1;" x1="527.875" x2="527.875" y1="775.3232" y2="795.3232"/><polygon fill="#181818" points="523.875,785.3232,527.875,795.3232,531.875,785.3232,527.875,789.3232" style="stroke:#181818;stroke-width:1;stroke-linejoin:miter;stroke-miterlimit:10;"/><line style="stroke:#181818;stroke-width:1;" x1="527.875" x2="527.875" y1="829.292" y2="849.292"/><polygon fill="#181818" points="523.875,839.292,527.875,849.292,531.875,839.292,527.875,843.292" style="stroke:#181818;stroke-width:1;stroke-linejoin:miter;stroke-miterlimit:10;"/><line style="stroke:#181818;stroke-width:1;" x1="81.4336" x2="81.4336" y1="171.6357" y2="176.6357"/><line style="stroke:#181818;stroke-width:1;" x1="81.4336" x2="295.9517" y1="176.6357" y2="176.6357"/><line style="stroke:#181818;stroke-width:1;" x1="295.9517" x2="295.9517" y1="176.6357" y2="191.6357"/><polygon fill="#181818" points="291.9517,181.6357,295.9517,191.6357,299.9517,181.6357,295.9517,185.6357" style="stroke:#181818;stroke-width:1;stroke-linejoin:miter;stroke-miterlimit:10;"/><line style="stroke:#181818;stroke-width:1;" x1="295.9517" x2="295.9517" y1="225.6045" y2="230.6045"/><line style="stroke:#181818;stroke-width:1;" x1="295.9517" x2="81.4336" y1="230.6045" y2="230.6045"/><line style="stroke:#181818;stroke-width:1;" x1="81.4336" x2="81.4336" y1="230.6045" y2="245.6045"/><polygon fill="#181818" points="77.4336,235.6045,81.4336,245.6045,85.4336,235.6045,81.4336,239.6045" style="stroke:#181818;stroke-width:1;stroke-linejoin:miter;stroke-miterlimit:10;"/><line style="stroke:#181818;stroke-width:1;" x1="81.4336" x2="81.4336" y1="279.5732" y2="284.5732"/><line style="stroke:#181818;stroke-width:1;" x1="81.4336" x2="295.9517" y1="284.5732" y2="284.5732"/><line style="stroke:#181818;stroke-width:1;" x1="295.9517" x2="295.9517" y1="284.5732" y2="299.5732"/><polygon fill="#181818" points="291.9517,289.5732,295.9517,299.5732,299.9517,289.5732,295.9517,293.5732" style="stroke:#181818;stroke-width:1;stroke-linejoin:miter;stroke-miterlimit:10;"/><line style="stroke:#181818;stroke-width:1;" x1="295.9517" x2="295.9517" y1="333.542" y2="338.542"/><line style="stroke:#181818;stroke-width:1;" x1="295.9517" x2="81.4336" y1="338.542" y2="338.542"/><line style="stroke:#181818;stroke-width:1;" x1="81.4336" x2="81.4336" y1="338.542" y2="353.542"/><polygon fill="#181818" points="77.4336,343.542,81.4336,353.542,85.4336,343.542,81.4336,347.542" style="stroke:#181818;stroke-width:1;stroke-linejoin:miter;stroke-miterlimit:10;"/><line style="stroke:#181818;stroke-width:1;" x1="81.4336" x2="81.4336" y1="387.5107" y2="392.5107"/><line style="stroke:#181818;stroke-width:1;" x1="81.4336" x2="295.9517" y1="392.5107" y2="392.5107"/><line style="stroke:#181818;stroke-width:1;" x1="295.9517" x2="295.9517" y1="392.5107" y2="407.5107"/><polygon fill="#181818" points="291.9517,397.5107,295.9517,407.5107,299.9517,397.5107,295.9517,401.5107" style="stroke:#181818;stroke-width:1;stroke-linejoin:miter;stroke-miterlimit:10;"/><line style="stroke:#181818;stroke-width:1;" x1="295.9517" x2="295.9517" y1="613.417" y2="618.417"/><line style="stroke:#181818;stroke-width:1;" x1="295.9517" x2="527.875" y1="618.417" y2="618.417"/><line style="stroke:#181818;stroke-width:1;" x1="527.875" x2="527.875" y1="618.417" y2="633.417"/><polygon fill="#181818" points="523.875,623.417,527.875,633.417,531.875,623.417,527.875,627.417" style="stroke:#181818;stroke-width:1;stroke-linejoin:miter;stroke-miterlimit:10;"/><line style="stroke:#181818;stroke-width:1;" x1="527.875" x2="527.875" y1="667.3857" y2="672.3857"/><line style="stroke:#181818;stroke-width:1;" x1="527.875" x2="295.9517" y1="672.3857" y2="672.3857"/><line style="stroke:#181818;stroke-width:1;" x1="295.9517" x2="295.9517" y1="672.3857" y2="687.3857"/><polygon fill="#181818" points="291.9517,677.3857,295.9517,687.3857,299.9517,677.3857,295.9517,681.3857" style="stroke:#181818;stroke-width:1;stroke-linejoin:miter;stroke-miterlimit:10;"/><line style="stroke:#181818;stroke-width:1;" x1="295.9517" x2="295.9517" y1="721.3545" y2="726.3545"/><line style="stroke:#181818;stroke-width:1;" x1="295.9517" x2="527.875" y1="726.3545" y2="726.3545"/><line style="stroke:#181818;stroke-width:1;" x1="527.875" x2="527.875" y1="726.3545" y2="741.3545"/><polygon fill="#181818" points="523.875,731.3545,527.875,741.3545,531.875,731.3545,527.875,735.3545" style="stroke:#181818;stroke-width:1;stroke-linejoin:miter;stroke-miterlimit:10;"/><text fill="#000000" font-family="sans-serif" font-size="18" lengthAdjust="spacing" textLength="98.5078" x="31.1797" y="34.4531">Mahasiswa</text><text fill="#000000" font-family="sans-serif" font-size="18" lengthAdjust="spacing" textLength="61.4707" x="256.5566" y="34.4531">Sistem</text><text fill="#000000" font-family="sans-serif" font-size="18" lengthAdjust="spacing" textLength="57.6826" x="498.0337" y="34.4531">Admin</text><?plantuml-src VP1DQyCm38Rl_XKw9gVUxSFOHs3G5Gej7JkgH5b452TOwdh9ZvyJjhM5ifijlO_qsDC6MrJMCqvE3PCvlq4zTV1EHsMZuFmp9eRgYw85vwOTgr4_ER_7VcJfCC8BDfcyHAv6-YqBj__JPCXodruBTp_ZR-W32jSvbNk6mN43nNo2fVvGWhKKeVZ0qW7u7VVZOfa3Mr9ACvBh5uKdIlDE2Ov42Ofz7jwLjvagfI5BKAovoIgFTSyncxmDdnnXkTqtN0BXYbYJ38A_xvqt7B5TLJNRwXN7a_xzXDemVWC0?></g></svg>